<svg width="16.000000" height="16.000000" viewBox="0 0 16 16" fill="none" xmlns="http://www.w3.org/2000/svg" xmlns:xlink="http://www.w3.org/1999/xlink">
    <desc>
        Created with Pixso.
    </desc>
    <defs/>
    <rect id="Icon" rx="0.000000" width="15.333333" height="15.333333" transform="translate(0.333333 0.333333)" fill="#FFFFFF" fill-opacity="0"/>
    <path id="Path" d="M14 8C14 11.31 11.31 14 8 14C4.68 14 2 11.31 2 8C2 4.68 4.68 2 8 2C11.31 2 14 4.68 14 8Z" stroke="#E12828" stroke-opacity="1.000000" stroke-width="1.000000" stroke-linejoin="round"/>
    <path id="Path" d="M8 8.33L8 5" stroke="#E12828" stroke-opacity="1.000000" stroke-width="1.000000" stroke-linejoin="round" stroke-linecap="round"/>
    <path id="Path" d="M7.83 10.83C7.83 10.92 7.9 11 8 11C8.09 11 8.16 10.92 8.16 10.83C8.16 10.74 8.09 10.66 7.99 10.66C7.9 10.66 7.83 10.74 7.83 10.83Z" stroke="#E12828" stroke-opacity="1.000000" stroke-width="1.000000" stroke-linejoin="round"/>
</svg>
