<svg width="32.000000" height="31.689453" viewBox="0 0 32 31.6895" fill="none" xmlns="http://www.w3.org/2000/svg" xmlns:xlink="http://www.w3.org/1999/xlink">
    <desc>
        Created with Pixso.
    </desc>
    <defs/>
    <path id="Vector" d="M2.22 19.71C2.22 20.04 2.22 20.31 2.22 20.58C2.22 23.81 2.23 27.03 2.23 30.26C2.24 30.49 2.21 30.72 2.16 30.94C2.03 31.43 1.72 31.68 1.29 31.68C0.86 31.69 0.53 31.43 0.42 30.95C0.35 30.66 0.32 30.36 0.32 30.06C0.13 23.13 0.11 16.19 0.17 9.26C0.19 6.63 0.06 4.01 0 1.38C-0.02 0.72 0.22 0.39 0.93 0.24C2.33 -0.06 3.78 -0.08 5.19 0.17C7.07 0.49 8.91 1.06 10.65 1.85C12.64 2.77 14.69 3.5 16.87 3.85C20.22 4.38 23.49 4.08 26.74 3.21C27.89 2.89 29.07 2.65 30.24 2.4C30.51 2.36 30.78 2.37 31.05 2.43C31.24 2.45 31.41 2.54 31.53 2.68C31.66 2.82 31.74 3 31.74 3.19C31.81 3.71 31.88 4.24 31.89 4.77C31.93 7.37 32.01 9.97 31.99 12.57C31.97 15.15 31.85 17.73 31.75 20.31C31.71 21.25 31.25 21.94 30.3 22.19C28.9 22.55 27.49 22.9 26.08 23.2C22.96 23.87 19.83 23.63 16.72 23.14C14.28 22.75 11.92 22.05 9.61 21.18C7.51 20.4 5.35 19.85 3.1 19.71C2.83 19.7 2.56 19.71 2.22 19.71ZM30.25 4.62C30.17 4.62 30.09 4.63 30.01 4.64C29.25 4.86 28.51 5.09 27.75 5.3C23.55 6.5 19.32 6.73 15.05 5.65C13.25 5.19 11.57 4.46 9.91 3.66C8.18 2.84 6.35 2.26 4.46 1.96C3.65 1.83 2.82 1.81 2 1.91C2 2.83 1.98 3.68 2 4.52C2.06 6.78 2.17 9.03 2.21 11.29C2.25 13.25 2.21 15.21 2.21 17.16C2.21 17.41 2.21 17.66 2.21 17.95C2.52 17.95 2.75 17.94 2.98 17.95C3.57 17.97 4.18 17.96 4.77 18.03C6.79 18.26 8.73 18.85 10.65 19.52C16.21 21.48 21.87 22.24 27.68 20.71C28.46 20.51 29.23 20.29 30 20.08C30.29 14.89 30.05 9.78 30.25 4.62L30.25 4.62Z" fill="#3A353E" fill-opacity="1.000000" fill-rule="nonzero"/>
    <path id="Vector" d="M30.25 4.62C30.17 4.62 30.09 4.63 30.01 4.64C29.25 4.86 28.51 5.09 27.75 5.3C23.55 6.5 19.32 6.73 15.05 5.65C13.25 5.19 11.57 4.46 9.91 3.66C8.18 2.84 6.35 2.26 4.46 1.96C3.65 1.83 2.82 1.81 2 1.91C2 2.83 1.98 3.68 2 4.52C2.06 6.78 2.17 9.03 2.21 11.29C2.25 13.25 2.21 15.21 2.21 17.16L2.21 17.95C2.52 17.95 2.75 17.94 2.98 17.95C3.57 17.97 4.18 17.96 4.77 18.03C6.79 18.26 8.73 18.85 10.65 19.52C16.21 21.48 21.87 22.24 27.68 20.71C28.46 20.51 29.23 20.29 30 20.08C30.29 14.89 30.05 9.78 30.25 4.62Z" fill="#A4E8BC" fill-opacity="1.000000" fill-rule="nonzero"/>
</svg>
