<svg width="31.914062" height="30.101074" viewBox="0 0 31.9141 30.1011" fill="none" xmlns="http://www.w3.org/2000/svg" xmlns:xlink="http://www.w3.org/1999/xlink">
    <desc>
        Created with Pixso.
    </desc>
    <defs/>
    <path id="Vector" d="M1.18 18.56C1.29 18.64 1.41 18.72 1.53 18.8L1.64 18.87C0.82 19.69 0.32 20.57 0.1 21.54C-0.1 22.46 0.16 23.23 0.88 23.83C0.98 23.91 1.08 23.99 1.17 24.07L1.26 24.14C0.72 24.87 0.42 25.59 0.36 26.36C0.28 27.32 0.61 28.01 1.35 28.42C1.89 28.71 2.43 28.99 2.99 29.11C4.11 29.34 5.24 29.5 6.37 29.61C7.96 29.76 9.67 29.88 11.62 29.98C12.71 30.04 13.97 30.1 15.28 30.1C15.48 30.1 15.69 30.09 15.89 30.09C17.38 30.07 18.7 29.98 19.87 29.11C20 29 20.17 28.93 20.34 28.92C20.52 28.92 20.69 28.96 20.84 29.06C21.06 29.17 21.29 29.24 21.53 29.26C21.58 29.27 21.63 29.28 21.68 29.29C23.72 29.67 25.8 29.62 27.82 29.58C28.12 29.57 28.42 29.56 28.72 29.56C29.82 29.54 30.59 28.92 30.94 27.76C31.06 27.37 31.14 26.98 31.19 26.57L31.25 25.93C31.4 24.52 31.55 23.06 31.65 21.62C31.88 18.33 31.96 14.96 31.88 11.59C31.86 10.93 31.82 10.28 31.76 9.67C31.69 8.88 31.3 8.28 30.66 7.95C30.12 7.68 29.52 7.37 28.88 7.23C26.95 6.79 24.95 6.9 23.2 6.99C23.02 7 22.83 7 22.65 7C22.06 7 21.44 7 20.84 7.32C20.25 5.85 19.24 4.73 18.33 3.83C17.98 3.47 17.62 3.12 17.26 2.77C16.69 2.22 16.11 1.65 15.55 1.08C14.61 0.13 13.41 -0.19 11.87 0.1C11.62 0.14 11.38 0.24 11.16 0.38C10.95 0.52 10.76 0.71 10.62 0.92C10.31 1.38 10.2 1.94 10.31 2.49C10.38 2.84 10.48 3.19 10.63 3.52C10.96 4.25 11.32 4.96 11.73 5.75C11.78 5.85 11.83 5.95 11.89 6.05C12.08 6.38 12.24 6.73 12.33 7.1C12.31 7.11 12.29 7.12 12.26 7.12C12.21 7.14 12.16 7.15 12.1 7.16C11.42 7.16 10.74 7.17 10.06 7.17C9 7.18 7.91 7.19 6.84 7.21C5.69 7.22 4.56 7.4 3.46 7.72C2.57 7.97 1.78 8.47 1.17 9.16C-0.04 10.55 0.01 12.12 1.29 13.36C1.3 13.38 1.3 13.39 1.31 13.41C1.31 13.42 1.31 13.43 1.32 13.45C0.69 14.09 0.26 14.89 0.08 15.77C-0.18 16.95 0.18 17.89 1.18 18.56ZM3.55 14.06C4.02 13.95 4.34 13.63 4.37 13.25C4.42 12.74 3.9 12.54 3.59 12.42C3.42 12.36 3.25 12.31 3.08 12.27C2.95 12.24 2.82 12.21 2.7 12.17C2.11 11.98 1.93 11.66 2.07 11.06C2.17 10.58 2.42 10.15 2.79 9.82C3.57 9.13 4.36 8.78 5.28 8.72L5.37 8.72C5.38 8.72 5.38 8.72 5.38 8.72C7.34 8.59 9.37 8.47 11.38 8.65C11.92 8.7 12.48 8.69 13.02 8.63C13.4 8.6 13.64 8.48 13.77 8.29C13.9 8.11 13.91 7.86 13.82 7.53C13.57 6.69 13.28 5.86 12.94 5.06C12.78 4.67 12.6 4.28 12.43 3.9C12.43 3.9 12.43 3.89 12.43 3.89C12.21 3.43 11.99 2.94 11.81 2.46C11.66 2.06 11.65 1.78 11.77 1.61C11.89 1.43 12.17 1.35 12.61 1.35C13.42 1.36 14.01 1.6 14.48 2.1C14.92 2.59 15.39 3.07 15.85 3.54C16.56 4.27 17.3 5.03 17.98 5.82C19.32 7.39 19.93 8.98 19.85 10.69C19.81 11.57 19.83 12.45 19.88 13.33C19.91 14.01 19.87 14.69 19.79 15.37C19.74 15.79 19.7 16.22 19.68 16.65C19.62 18.24 19.58 19.87 19.55 21.43L19.54 21.43C19.54 21.46 19.54 21.48 19.54 21.51C19.52 22.42 19.5 23.34 19.47 24.25L19.47 24.29L19.47 24.29C19.45 25.02 19.43 25.78 19.34 26.51C19.19 27.75 18.74 28.2 17.56 28.31C16.64 28.39 15.69 28.4 14.78 28.41L14.78 28.41C14.43 28.41 14.08 28.42 13.73 28.42C13.36 28.43 12.98 28.43 12.62 28.43C12.61 28.43 12.61 28.43 12.61 28.43C12.46 28.43 12.31 28.42 12.16 28.42L12.16 28.4L12.1 28.4C11.41 28.35 10.72 28.3 10.03 28.25C8.25 28.12 6.4 27.99 4.59 27.82C3.86 27.76 3.13 27.5 2.51 27.26C1.98 27.05 1.87 26.82 1.99 26.2C2.07 25.84 2.19 25.48 2.36 25.16C2.6 24.72 2.89 24.54 3.31 24.56C3.63 24.56 3.95 24.47 4.22 24.3C4.45 24.17 4.69 23.89 4.69 23.67C4.69 23.44 4.45 23.15 4.23 23.03C3.91 22.88 3.56 22.77 3.2 22.71C2.66 22.6 2.29 22.48 2.18 22.26C2.07 22.07 2.12 21.77 2.37 21.17C2.74 20.27 3.24 19.7 3.94 19.39C4.15 19.31 4.33 19.16 4.45 18.96C4.57 18.77 4.62 18.53 4.58 18.31C4.55 17.8 4.17 17.6 3.81 17.47C3.62 17.41 3.43 17.36 3.24 17.31C3.24 17.31 3.24 17.31 3.24 17.31C3.04 17.26 2.84 17.2 2.65 17.14C2.06 16.93 1.92 16.69 1.99 16.08C2.15 14.89 2.62 14.27 3.55 14.05L3.55 14.06ZM23.75 27.98C23.04 27.95 22.34 27.88 21.64 27.76C20.97 27.64 20.97 27.6 21.03 26.89C21.15 25.58 21.25 24.21 21.33 22.71L21.37 22.01C21.37 22.01 21.37 22.01 21.37 22.01C21.46 20.26 21.56 18.46 21.59 16.68C21.63 14.96 21.61 13.21 21.6 11.52C21.6 11.52 21.6 11.52 21.6 11.52C21.59 11.11 21.59 10.7 21.59 10.28C21.58 9.97 21.56 9.66 21.52 9.35C21.5 9.22 21.49 9.09 21.48 8.94C22.03 8.93 22.59 8.9 23.13 8.88C23.14 8.88 23.14 8.88 23.15 8.88C24.84 8.79 26.44 8.72 28.07 8.94C28.11 8.94 28.16 8.95 28.21 8.95C28.28 8.96 28.35 8.97 28.42 8.98C29.92 9.26 30.14 9.53 30.11 11.03L30.1 11.7C30.1 11.73 30.1 11.75 30.1 11.78C30.04 15.33 29.98 19 29.86 22.61C29.82 23.89 29.66 25.2 29.51 26.46L29.47 26.84C29.35 27.79 29.16 27.97 28.29 28C26.77 28.06 25.27 28.02 23.75 27.98L23.75 27.98Z" fill="#3A353E" fill-opacity="1.000000" fill-rule="nonzero"/>
    <path id="Vector" d="M3.55 14.06C4.02 13.95 4.34 13.63 4.37 13.25C4.42 12.74 3.9 12.54 3.59 12.42C3.42 12.36 3.25 12.31 3.08 12.27C2.95 12.24 2.82 12.21 2.7 12.17C2.11 11.98 1.93 11.66 2.07 11.06C2.17 10.58 2.42 10.15 2.79 9.82C3.57 9.13 4.36 8.78 5.28 8.72L5.37 8.72L5.38 8.72C7.34 8.59 9.37 8.47 11.38 8.65C11.92 8.7 12.48 8.69 13.02 8.63C13.4 8.6 13.64 8.48 13.77 8.29C13.9 8.11 13.91 7.86 13.82 7.53C13.57 6.69 13.28 5.86 12.94 5.06C12.78 4.67 12.6 4.28 12.43 3.9L12.43 3.89C12.21 3.43 11.99 2.94 11.81 2.46C11.66 2.06 11.65 1.78 11.77 1.61C11.89 1.43 12.17 1.35 12.61 1.35C13.42 1.36 14.01 1.6 14.48 2.1C14.92 2.59 15.39 3.07 15.85 3.54C16.56 4.27 17.3 5.03 17.98 5.82C19.32 7.39 19.93 8.98 19.85 10.69C19.81 11.57 19.83 12.45 19.88 13.33C19.91 14.01 19.87 14.69 19.79 15.37C19.74 15.79 19.7 16.22 19.68 16.65C19.62 18.24 19.58 19.87 19.55 21.43L19.54 21.43L19.54 21.51C19.52 22.42 19.5 23.34 19.47 24.25L19.47 24.29L19.47 24.29C19.45 25.02 19.43 25.78 19.34 26.51C19.19 27.75 18.74 28.2 17.56 28.31C16.64 28.39 15.69 28.4 14.78 28.41L14.78 28.41C14.43 28.41 14.08 28.42 13.73 28.42C13.36 28.43 12.98 28.43 12.62 28.43L12.61 28.43C12.46 28.43 12.31 28.42 12.16 28.42L12.16 28.4L12.1 28.4C11.41 28.35 10.72 28.3 10.03 28.25C8.25 28.12 6.4 27.99 4.59 27.82C3.86 27.76 3.13 27.5 2.51 27.26C1.98 27.05 1.87 26.82 1.99 26.2C2.07 25.84 2.19 25.48 2.36 25.16C2.6 24.72 2.89 24.54 3.31 24.56C3.63 24.56 3.95 24.47 4.22 24.3C4.45 24.17 4.69 23.89 4.69 23.67C4.69 23.44 4.45 23.15 4.23 23.03C3.91 22.88 3.56 22.77 3.2 22.71C2.66 22.6 2.29 22.48 2.18 22.26C2.07 22.07 2.12 21.77 2.37 21.17C2.74 20.27 3.24 19.7 3.94 19.39C4.15 19.31 4.33 19.16 4.45 18.96C4.57 18.77 4.62 18.53 4.58 18.31C4.55 17.8 4.17 17.6 3.81 17.47C3.62 17.41 3.43 17.36 3.24 17.31L3.24 17.31C3.04 17.26 2.84 17.2 2.65 17.14C2.06 16.93 1.92 16.69 1.99 16.08C2.15 14.89 2.62 14.27 3.55 14.05L3.55 14.06Z" fill="#FFCFAB" fill-opacity="1.000000" fill-rule="nonzero"/>
    <path id="Vector" d="M23.75 27.98C23.04 27.95 22.34 27.88 21.64 27.76C20.97 27.64 20.97 27.6 21.03 26.89C21.15 25.58 21.25 24.21 21.33 22.71L21.37 22.01L21.37 22.01C21.46 20.26 21.56 18.46 21.59 16.68C21.63 14.96 21.61 13.21 21.6 11.52L21.6 11.52C21.59 11.11 21.59 10.7 21.59 10.28C21.58 9.97 21.56 9.66 21.52 9.35C21.5 9.22 21.49 9.09 21.48 8.94C22.03 8.93 22.59 8.9 23.13 8.88L23.15 8.88C24.84 8.79 26.44 8.72 28.07 8.94C28.11 8.94 28.16 8.95 28.21 8.95C28.28 8.96 28.35 8.97 28.42 8.98C29.92 9.26 30.14 9.53 30.11 11.03L30.1 11.7L30.1 11.78C30.04 15.33 29.98 19 29.86 22.61C29.82 23.89 29.66 25.2 29.51 26.46L29.47 26.84C29.35 27.79 29.16 27.97 28.29 28C26.77 28.06 25.27 28.02 23.75 27.98L23.75 27.98Z" fill="#C3F0D2" fill-opacity="1.000000" fill-rule="nonzero"/>
</svg>
