<svg width="24.000000" height="24.000000" viewBox="0 0 24 24" fill="none" xmlns="http://www.w3.org/2000/svg" xmlns:xlink="http://www.w3.org/1999/xlink">
    <desc>
        Created with Pixso.
    </desc>
    <defs/>
    <rect id="24/Send" rx="0.000000" width="23.000000" height="23.000000" transform="translate(0.500000 0.500000)" fill="#FFFFFF" fill-opacity="0"/>
    <path id="Vector" d="M8.16 7.7L5.07 7.7C4.12 7.7 3.35 8.47 3.35 9.42C3.35 9.99 3.64 10.52 4.11 10.84L9.83 14.72C11.14 15.6 12.85 15.6 14.16 14.72L19.88 10.84C20.35 10.52 20.63 9.99 20.63 9.42C20.63 8.47 19.87 7.7 18.92 7.7L15.83 7.7M3.35 9.44L3.35 18.26C3.35 19.32 4.21 20.18 5.27 20.18L18.71 20.18C19.77 20.18 20.63 19.32 20.63 18.26L20.63 9.44M3.89 19.59L9.19 14.29M14.79 14.29L20.1 19.59M11.99 2.9L11.99 9.57M13.91 4.82L11.99 2.9L10.07 4.82" stroke="#FFFFFF" stroke-opacity="1.000000" stroke-width="1.500000" stroke-linejoin="round" stroke-linecap="round"/>
</svg>
